<svg width="46" height="46" viewBox="0 0 46 46" fill="none" xmlns="http://www.w3.org/2000/svg">
<rect x="0.499756" y="0.5" width="45" height="45" rx="22.5" fill="#40DDB6"/>
<path d="M27.9646 13.4379C29.2803 13.4416 30.5409 13.9466 31.4712 14.8425C32.4015 15.7383 32.9259 16.9523 32.9299 18.2192V27.7808C32.9259 29.0478 32.4015 30.2617 31.4712 31.1576C30.5409 32.0534 29.2803 32.5584 27.9646 32.5622H18.0352C16.7196 32.5584 15.4589 32.0534 14.5286 31.1576C13.5983 30.2617 13.0739 29.0478 13.07 27.7808V18.2192C13.0739 16.9523 13.5983 15.7383 14.5286 14.8425C15.4589 13.9466 16.7196 13.4416 18.0352 13.4379H27.9646ZM27.9646 11.5256H18.0352C14.2121 11.5256 11.0842 14.5377 11.0842 18.2192V27.7808C11.0842 31.4624 14.2121 34.4744 18.0352 34.4744H27.9646C31.7878 34.4744 34.9156 31.4624 34.9156 27.7808V18.2192C34.9156 14.5377 31.7878 11.5256 27.9646 11.5256Z" fill="white"/>
<path d="M29.4538 18.2192C29.1592 18.2192 28.8712 18.1351 28.6263 17.9775C28.3813 17.8199 28.1904 17.5958 28.0777 17.3338C27.9649 17.0717 27.9354 16.7833 27.9929 16.5051C28.0504 16.2268 28.1922 15.9713 28.4006 15.7707C28.6089 15.5701 28.8743 15.4335 29.1632 15.3781C29.4521 15.3228 29.7516 15.3512 30.0238 15.4598C30.2959 15.5683 30.5285 15.7522 30.6922 15.988C30.8559 16.2239 30.9432 16.5012 30.9432 16.7849C30.9436 16.9734 30.9054 17.16 30.8307 17.3342C30.756 17.5084 30.6463 17.6667 30.5079 17.8C30.3695 17.9333 30.2051 18.0389 30.0243 18.1108C29.8434 18.1828 29.6495 18.2196 29.4538 18.2192ZM22.9996 19.175C23.7852 19.175 24.5532 19.3994 25.2064 19.8197C25.8596 20.24 26.3687 20.8373 26.6693 21.5363C26.97 22.2352 27.0486 23.0042 26.8954 23.7462C26.7421 24.4882 26.3638 25.1697 25.8083 25.7047C25.2528 26.2396 24.545 26.6039 23.7745 26.7515C23.004 26.8991 22.2054 26.8233 21.4796 26.5338C20.7538 26.2443 20.1334 25.7541 19.6969 25.125C19.2605 24.496 19.0275 23.7565 19.0275 23C19.0286 21.9859 19.4475 21.0136 20.1922 20.2965C20.9368 19.5795 21.9465 19.1761 22.9996 19.175ZM22.9996 17.2628C21.8212 17.2628 20.6694 17.5993 19.6896 18.2297C18.7098 18.8601 17.9462 19.7561 17.4953 20.8045C17.0443 21.8528 16.9263 23.0064 17.1562 24.1193C17.3861 25.2322 17.9535 26.2544 18.7868 27.0568C19.62 27.8592 20.6816 28.4056 21.8373 28.627C22.993 28.8483 24.1909 28.7347 25.2796 28.3005C26.3682 27.8662 27.2987 27.1309 27.9534 26.1874C28.608 25.2439 28.9575 24.1347 28.9575 23C28.9575 21.4784 28.3298 20.0191 27.2124 18.9432C26.0951 17.8673 24.5797 17.2628 22.9996 17.2628Z" fill="white"/>
</svg>
