<svg width="162" height="60" viewBox="0 0 162 60" fill="none" xmlns="http://www.w3.org/2000/svg">
<g filter="url(#filter0_d_309_2196)">
<path d="M157.762 37.6711C157.762 45.1289 151.652 51.239 144.194 51.239H17.5679C10.11 51.239 4 45.1289 4 37.6711V13.5678C4 6.10999 10.11 0 17.5679 0H144.194C151.652 0 157.762 6.10999 157.762 13.5678V37.6711Z" fill="#404040"/>
<path d="M58.9269 14.4H59.6569V19H58.9269V18.17C58.5769 18.72 57.9969 19.08 57.2169 19.08C55.9069 19.08 54.9769 18.07 54.9769 16.7C54.9769 15.32 55.9069 14.33 57.2169 14.33C57.9969 14.33 58.5769 14.68 58.9269 15.23V14.4ZM57.3069 18.39C58.2969 18.39 58.9269 17.68 58.9269 16.7C58.9269 15.72 58.2969 15.02 57.3069 15.02C56.3269 15.02 55.6769 15.72 55.6769 16.7C55.6769 17.68 56.3269 18.39 57.3069 18.39ZM63.1079 14.33C64.0279 14.33 64.9379 14.87 64.9379 16.17V19H64.2179V16.27C64.2179 15.39 63.5979 14.96 62.9179 14.96C62.2279 14.96 61.6279 15.39 61.6279 16.27V19H60.9079V14.4H61.6279V15.02C61.9779 14.54 62.5379 14.33 63.1079 14.33ZM70.0109 12.5H70.7409V19H70.0109V18.17C69.6609 18.72 69.0809 19.08 68.3009 19.08C66.9909 19.08 66.0609 18.07 66.0609 16.7C66.0609 15.32 66.9909 14.33 68.3009 14.33C69.0809 14.33 69.6609 14.68 70.0109 15.23V12.5ZM68.3909 18.39C69.3809 18.39 70.0109 17.68 70.0109 16.7C70.0109 15.72 69.3809 15.02 68.3909 15.02C67.4109 15.02 66.7609 15.72 66.7609 16.7C66.7609 17.68 67.4109 18.39 68.3909 18.39ZM72.7119 15.25C73.0619 14.62 73.6819 14.34 74.3319 14.33V15.02C73.6219 15.03 72.7119 15.4 72.7119 16.52V19H71.9919V14.4H72.7119V15.25ZM77.1411 19.09C75.7611 19.09 74.8011 18.07 74.8011 16.7C74.8011 15.32 75.7611 14.32 77.1411 14.32C78.5211 14.32 79.4811 15.32 79.4811 16.7C79.4811 18.07 78.5211 19.09 77.1411 19.09ZM77.1411 18.39C78.1111 18.39 78.7511 17.67 78.7511 16.7C78.7511 15.73 78.1111 15.02 77.1411 15.02C76.1711 15.02 75.5211 15.73 75.5211 16.7C75.5211 17.67 76.1711 18.39 77.1411 18.39ZM81.0354 13.42C80.8154 13.42 80.5954 13.24 80.5954 12.97C80.5954 12.7 80.8154 12.54 81.0354 12.54C81.2554 12.54 81.4754 12.7 81.4754 12.97C81.4754 13.24 81.2554 13.42 81.0354 13.42ZM81.3954 19H80.6754V14.4H81.4054L81.3954 19ZM86.5441 12.5H87.2741V19H86.5441V18.17C86.1941 18.72 85.6141 19.08 84.8341 19.08C83.5241 19.08 82.5941 18.07 82.5941 16.7C82.5941 15.32 83.5241 14.33 84.8341 14.33C85.6141 14.33 86.1941 14.68 86.5441 15.23V12.5ZM84.9241 18.39C85.9141 18.39 86.5441 17.68 86.5441 16.7C86.5441 15.72 85.9141 15.02 84.9241 15.02C83.9441 15.02 83.2941 15.72 83.2941 16.7C83.2941 17.68 83.9441 18.39 84.9241 18.39ZM94.3371 14.4H95.0671V19H94.3371V18.17C93.9871 18.72 93.4071 19.08 92.6271 19.08C91.3171 19.08 90.3871 18.07 90.3871 16.7C90.3871 15.32 91.3171 14.33 92.6271 14.33C93.4071 14.33 93.9871 14.68 94.3371 15.23V14.4ZM92.7171 18.39C93.7071 18.39 94.3371 17.68 94.3371 16.7C94.3371 15.72 93.7071 15.02 92.7171 15.02C91.7371 15.02 91.0871 15.72 91.0871 16.7C91.0871 17.68 91.7371 18.39 92.7171 18.39ZM98.7481 14.33C100.058 14.33 100.998 15.34 100.998 16.71C100.998 18.09 100.058 19.08 98.7481 19.08C97.9681 19.08 97.3881 18.73 97.0381 18.17V20.84H96.3181V14.4H97.0381V15.24C97.3881 14.68 97.9681 14.33 98.7481 14.33ZM98.6581 18.39C99.6381 18.39 100.288 17.69 100.288 16.71C100.288 15.73 99.6381 15.02 98.6581 15.02C97.6781 15.02 97.0381 15.73 97.0381 16.71C97.0381 17.69 97.6781 18.39 98.6581 18.39ZM104.539 14.33C105.849 14.33 106.789 15.34 106.789 16.71C106.789 18.09 105.849 19.08 104.539 19.08C103.759 19.08 103.179 18.73 102.829 18.17V20.84H102.109V14.4H102.829V15.24C103.179 14.68 103.759 14.33 104.539 14.33ZM104.449 18.39C105.429 18.39 106.079 17.69 106.079 16.71C106.079 15.73 105.429 15.02 104.449 15.02C103.469 15.02 102.829 15.73 102.829 16.71C102.829 17.69 103.469 18.39 104.449 18.39ZM112.102 19.09C110.722 19.09 109.762 18.07 109.762 16.7C109.762 15.32 110.722 14.32 112.102 14.32C113.482 14.32 114.442 15.32 114.442 16.7C114.442 18.07 113.482 19.09 112.102 19.09ZM112.102 18.39C113.072 18.39 113.712 17.67 113.712 16.7C113.712 15.73 113.072 15.02 112.102 15.02C111.132 15.02 110.482 15.73 110.482 16.7C110.482 17.67 111.132 18.39 112.102 18.39ZM117.756 14.33C118.676 14.33 119.586 14.87 119.586 16.17V19H118.866V16.27C118.866 15.39 118.246 14.96 117.566 14.96C116.876 14.96 116.276 15.39 116.276 16.27V19H115.556V14.4H116.276V15.02C116.626 14.54 117.186 14.33 117.756 14.33Z" fill="white"/>
<path d="M64.1246 34.1807C64.0166 37.5107 61.8926 39.9047 58.5086 39.9047C55.0346 39.9047 52.6586 37.3847 52.6586 33.9107C52.6586 30.4367 55.0346 27.9167 58.5086 27.9167C60.5786 27.9167 62.2346 28.8167 63.2426 30.2567L62.1266 31.0487C61.2986 29.8967 60.0026 29.2847 58.5086 29.2847C55.8266 29.2847 54.0086 31.2287 54.0086 33.9107C54.0086 36.5927 55.8266 38.5367 58.5086 38.5367C60.7226 38.5367 62.3606 37.1147 62.5946 34.8647H58.4546V33.6047H64.1246V34.1807ZM70.1756 39.9227C67.6916 39.9227 65.9636 38.0867 65.9636 35.6207C65.9636 33.1367 67.6916 31.3367 70.1756 31.3367C72.6596 31.3367 74.3876 33.1367 74.3876 35.6207C74.3876 38.0867 72.6596 39.9227 70.1756 39.9227ZM70.1756 38.6627C71.9216 38.6627 73.0736 37.3667 73.0736 35.6207C73.0736 33.8747 71.9216 32.5967 70.1756 32.5967C68.4296 32.5967 67.2596 33.8747 67.2596 35.6207C67.2596 37.3667 68.4296 38.6627 70.1756 38.6627ZM80.3533 39.9227C77.8693 39.9227 76.1413 38.0867 76.1413 35.6207C76.1413 33.1367 77.8693 31.3367 80.3533 31.3367C82.8373 31.3367 84.5653 33.1367 84.5653 35.6207C84.5653 38.0867 82.8373 39.9227 80.3533 39.9227ZM80.3533 38.6627C82.0993 38.6627 83.2513 37.3667 83.2513 35.6207C83.2513 33.8747 82.0993 32.5967 80.3533 32.5967C78.6073 32.5967 77.4373 33.8747 77.4373 35.6207C77.4373 37.3667 78.6073 38.6627 80.3533 38.6627ZM93.4291 31.4807H94.7431V39.1487C94.7431 41.5247 93.0511 43.1807 90.3871 43.1807C88.9471 43.1807 87.7231 42.6227 86.9671 41.7227L87.8491 40.9847C88.5151 41.7227 89.4331 42.0467 90.3871 42.0467C91.9171 42.0467 93.4291 41.1287 93.4291 39.1487V38.2667C92.7991 39.2567 91.7551 39.9047 90.3511 39.9047C87.9931 39.9047 86.3191 38.0867 86.3191 35.6207C86.3191 33.1547 87.9931 31.3547 90.3511 31.3547C91.7551 31.3547 92.7991 31.9847 93.4291 32.9747V31.4807ZM90.5131 38.6627C92.2771 38.6627 93.4291 37.3847 93.4291 35.6207C93.4291 33.8567 92.2771 32.5967 90.5131 32.5967C88.7491 32.5967 87.5791 33.8567 87.5791 35.6207C87.5791 37.3847 88.7491 38.6627 90.5131 38.6627ZM98.2909 39.7607H96.9949V28.0607H98.2909V39.7607ZM104.397 31.3367C106.773 31.3367 108.357 33.1547 108.357 35.6207V36.0347H101.571C101.733 37.6907 102.867 38.7887 104.505 38.7887C105.729 38.7887 106.575 38.2307 107.043 37.5287L107.961 38.1947C107.241 39.2567 106.017 39.9227 104.505 39.9227C101.985 39.9227 100.311 38.0867 100.311 35.6207C100.311 33.1547 101.913 31.3367 104.397 31.3367ZM104.397 32.4167C102.777 32.4167 101.751 33.5147 101.571 35.1347H107.151C106.971 33.5687 105.945 32.4167 104.397 32.4167ZM119.249 28.0607C121.013 28.0607 122.597 29.4647 122.597 31.6247C122.597 33.7847 121.013 35.1887 119.249 35.1887H115.325V39.7607H113.975V28.0607H119.249ZM119.051 33.8747C120.311 33.8747 121.229 32.8847 121.229 31.6247C121.229 30.3827 120.329 29.3927 119.051 29.3927H115.325V33.8747H119.051ZM125.783 39.7607H124.487V28.0607H125.783V39.7607ZM134.913 31.4807H136.227V39.7607H134.913V38.2667C134.283 39.2567 133.239 39.9047 131.835 39.9047C129.477 39.9047 127.803 38.0867 127.803 35.6207C127.803 33.1367 129.477 31.3547 131.835 31.3547C133.239 31.3547 134.283 31.9847 134.913 32.9747V31.4807ZM131.997 38.6627C133.779 38.6627 134.913 37.3847 134.913 35.6207C134.913 33.8567 133.779 32.5967 131.997 32.5967C130.233 32.5967 129.063 33.8567 129.063 35.6207C129.063 37.3847 130.233 38.6627 131.997 38.6627ZM144.185 31.4807H145.535L140.927 43.0727H139.649L140.945 39.7427L137.705 31.4807H139.055L141.611 37.9607L144.185 31.4807Z" fill="white"/>
<path d="M12.6706 42.1189V9.14258L42.3223 25.159L12.6706 42.1189Z" fill="#5CA9B3"/>
<path d="M12.6706 9.14258L33.6514 30.1234L42.3223 25.159L12.6706 9.14258Z" fill="#C8DB9B"/>
<path d="M33.4716 20.374L12.6705 42.1186L42.3222 25.1587L33.4716 20.374Z" fill="#AC5067"/>
<path d="M33.6517 30.1231L42.3225 25.1587L33.4719 20.374L28.7996 25.2711L33.6517 30.1231Z" fill="#F4A676"/>
</g>
<defs>
<filter id="filter0_d_309_2196" x="0" y="0" width="161.762" height="59.239" filterUnits="userSpaceOnUse" color-interpolation-filters="sRGB">
<feFlood flood-opacity="0" result="BackgroundImageFix"/>
<feColorMatrix in="SourceAlpha" type="matrix" values="0 0 0 0 0 0 0 0 0 0 0 0 0 0 0 0 0 0 127 0" result="hardAlpha"/>
<feOffset dy="4"/>
<feGaussianBlur stdDeviation="2"/>
<feComposite in2="hardAlpha" operator="out"/>
<feColorMatrix type="matrix" values="0 0 0 0 0 0 0 0 0 0 0 0 0 0 0 0 0 0 0.25 0"/>
<feBlend mode="normal" in2="BackgroundImageFix" result="effect1_dropShadow_309_2196"/>
<feBlend mode="normal" in="SourceGraphic" in2="effect1_dropShadow_309_2196" result="shape"/>
</filter>
</defs>
</svg>
